<svg xmlns="http://www.w3.org/2000/svg" version="1.1" viewBox="-6 -6 36 36" >
  <title>Github icon</title>
  <path fill="#DDD" d="M7.947,25.243c0-0.387-0.014-2.411-0.022-3.771
  	c-4.531,0.984-5.487-2.184-5.487-2.184c-0.741-1.882-1.809-2.383-1.809-2.383c-1.479-1.011,0.112-0.99,0.112-0.99
  	c1.635,0.115,2.495,1.679,2.495,1.679c1.453,2.489,3.813,1.771,4.741,1.354c0.148-1.053,0.569-1.771,1.034-2.178
  	c-3.617-0.411-7.42-1.809-7.42-8.051c0-1.778,0.635-3.232,1.677-4.371C3.101,3.937,2.542,2.28,3.428,0.038
  	c0,0,1.368-0.438,4.479,1.67c1.299-0.361,2.693-0.542,4.078-0.548c1.384,0.006,2.776,0.187,4.078,0.548
  	c3.11-2.108,4.476-1.67,4.476-1.67c0.889,2.243,0.329,3.899,0.162,4.311c1.043,1.139,1.674,2.593,1.674,4.371
  	c0,6.258-3.809,7.635-7.438,8.038c0.585,0.503,1.105,1.497,1.105,3.017c0,2.178-0.02,4.935-0.02,5.469"/>
</svg>
